Coordinates
version=1
nRows=60
nColumns=12
inDegrees=yes

Units are S.I. units (second, meters, Newtons, ...)
Angles are in degrees

endheader
time	SC_y	SC_z	SC_x	AC_y	AC_z	AC_x	GH_y	GH_z	GH_yy	EL_x	PS_y
       0.0              -22.14          16.61          80.05           52.9          2.352         -15.12          134.6          11.39         -82.72          120.2          127.9
    0.0417              -22.14          16.61          80.04           52.9          2.351         -15.11          134.6          11.39          -82.7          120.2          127.9
    0.0834              -22.14          16.62          80.03          52.89           2.35         -15.11          134.5           11.4         -82.68          120.2          127.9
    0.1251              -22.14          16.62          80.02          52.89          2.349         -15.11          134.5           11.4         -82.66          120.2          127.9
    0.1668              -22.14          16.62           80.0          52.89          2.348         -15.11          134.5          11.41         -82.64          120.2          127.9
    0.2085              -22.14          16.62          79.99          52.89          2.347          -15.1          134.5          11.41         -82.61          120.2          127.8
    0.2502              -22.13          16.62          79.98          52.88          2.346          -15.1          134.5          11.42         -82.59          120.2          127.8
    0.2919              -22.13          16.63          79.97          52.88          2.344          -15.1          134.4          11.42         -82.56          120.2          127.8
    0.3336              -22.13          16.63          79.95          52.87          2.343         -15.09          134.4          11.43         -82.53          120.2          127.8
    0.3753              -22.13          16.63          79.94          52.87          2.342         -15.09          134.4          11.44          -82.5          120.2          127.7
     0.417              -22.13          16.64          79.92          52.86           2.34         -15.08          134.3          11.45         -82.46          120.2          127.7
    0.4587              -22.12          16.64           79.9          52.86          2.338         -15.08          134.3          11.46         -82.43          120.2          127.7
    0.5004              -22.12          16.65          79.88          52.85          2.337         -15.07          134.3          11.47         -82.39          120.2          127.6
    0.5421              -22.12          16.65          79.86          52.85          2.335         -15.07          134.2          11.48         -82.35          120.1          127.6
    0.5838              -22.12          16.65          79.84          52.84          2.333         -15.06          134.2          11.49          -82.3          120.1          127.6
    0.6255              -22.11          16.66          79.81          52.84           2.33         -15.06          134.1           11.5         -82.25          120.1          127.5
    0.6672              -22.11          16.67          79.79          52.83          2.328         -15.05          134.1          11.51          -82.2          120.1          127.5
    0.7089               -22.1          16.67          79.76          52.82          2.325         -15.04          134.0          11.53         -82.14          120.1          127.4
    0.7506               -22.1          16.68          79.73          52.81          2.322         -15.03          134.0          11.54         -82.07          120.1          127.4
    0.7923               -22.1          16.68          79.69           52.8          2.319         -15.03          133.9          11.56          -82.0          120.1          127.3
     0.834              -22.09          16.69          79.65          52.79          2.315         -15.02          133.8          11.58         -81.92          120.1          127.2
    0.8757              -22.09           16.7          79.61          52.78          2.311          -15.0          133.8           11.6         -81.84          120.1          127.2
    0.9174              -22.08          16.71          79.56          52.77          2.307         -14.99          133.7          11.62         -81.74          120.0          127.1
    0.9591              -22.07          16.72          79.51          52.75          2.302         -14.98          133.6          11.64         -81.64          120.0          127.0
     1.001              -22.06          16.73          79.46          52.74          2.297         -14.96          133.5          11.67         -81.52          120.0          126.9
     1.043              -22.06          16.75          79.39          52.72          2.291         -14.95          133.3           11.7         -81.39          120.0          126.8
     1.084              -22.05          16.76          79.32           52.7          2.284         -14.93          133.2          11.74         -81.25          120.0          126.6
     1.126              -22.04          16.78          79.24          52.68          2.277         -14.91          133.0          11.78         -81.08          119.9          126.5
     1.168              -22.02           16.8          79.15          52.65          2.268         -14.89          132.9          11.82          -80.9          119.9          126.3
     1.209              -22.01          16.82          79.04          52.62          2.259         -14.86          132.7          11.87         -80.69          119.9          126.1
     1.251              -21.99          16.84          78.93          52.59          2.248         -14.83          132.5          11.93         -80.45          119.8          125.9
     1.293              -21.98          16.87          78.79          52.55          2.235         -14.79          132.2          11.99         -80.18          119.8          125.7
     1.334              -21.96           16.9          78.63          52.51           2.22         -14.75          131.9          12.07         -79.86          119.7          125.4
     1.376              -21.93          16.94          78.45          52.46          2.203         -14.71          131.6          12.16         -79.49          119.6          125.1
     1.418               -21.9          16.99          78.24           52.4          2.184         -14.65          131.2          12.26         -79.06          119.6          124.7
      1.46              -21.87          17.04          77.99          52.33           2.16         -14.59          130.7          12.38         -78.55          119.5          124.2
     1.501              -21.83           17.1          77.69          52.25          2.133         -14.51          130.1          12.53         -77.95          119.4          123.7
     1.543              -21.78          17.17          77.33          52.15          2.099         -14.42          129.4           12.7         -77.22          119.2          123.1
     1.585              -21.73          17.26           76.9          52.04          2.059         -14.31          128.6          12.91         -76.35          119.1          122.3
     1.626              -21.66          17.37          76.37          51.89           2.01         -14.18          127.6          13.16         -75.28          118.9          121.3
     1.668              -21.57          17.51          75.72          51.71          1.949         -14.01          126.4          13.48         -73.96          118.7          120.2
      1.71              -21.46          17.68          74.91          51.49          1.874          -13.8          124.9          13.87         -72.31          118.4          118.7
     1.751              -21.33          17.89          73.89          51.21          1.778         -13.54          122.9          14.37         -70.24          118.0          116.9
     1.793              -21.16          18.16          72.59          50.85          1.657          -13.2          120.5           15.0          -67.6          117.6          114.6
     1.835              -20.94           18.5          70.92          50.39          1.502         -12.78          117.3           15.8         -64.23          117.0          111.6
     1.877              -20.65          18.95          68.78           49.8          1.303         -12.23          113.3          16.84         -59.89          116.2          107.7
     1.918              -20.29          19.51          66.06          49.05          1.049         -11.53          108.1          18.16         -54.36          115.2          102.8
      1.96              -19.84          20.22          62.62          48.11         0.7294         -10.65          101.6          19.82         -47.41          114.0          96.68
     2.002              -19.29          21.09          58.44          46.96           0.34         -9.578          93.75          21.85         -38.93          112.5          89.17
     2.043              -18.64           22.1          53.59          45.63        -0.1115         -8.336          84.59           24.2          -29.1          110.8          80.47
     2.085              -17.95          23.19          48.34          44.19        -0.6003          -6.99          74.67          26.74         -18.47          108.9          71.05
     2.127              -17.26          24.27           43.1          42.74         -1.089         -5.645          64.75          29.28         -7.826          107.1          61.64
     2.169              -16.61          25.28          38.25          41.41         -1.541         -4.402          55.59          31.63          1.999          105.3          52.94
      2.21              -16.06          26.15          34.07          40.26          -1.93          -3.33          47.68          33.65          10.48          103.9          45.43
     2.252              -15.61          26.86          30.63          39.32          -2.25         -2.451           41.2          35.32          17.43          102.6          39.27
     2.294              -15.25          27.42          27.91          38.57         -2.504         -1.751          36.04          36.64          22.96          101.7          34.38
     2.335              -14.96          27.87          25.77          37.98         -2.703         -1.203           32.0          37.67          27.29          100.9          30.54
     2.377              -14.74          28.21           24.1          37.53         -2.858        -0.7766          28.85          38.48          30.67          100.3          27.55
     2.419              -14.57          28.48           22.8          37.17         -2.979        -0.4431           26.4          39.11          33.31          99.85          25.22
      2.46              -14.44          28.69          21.78          36.89         -3.074        -0.1808          24.46           39.6          35.38          99.49          23.38
